<?xml version="1.0" standalone="no"?>
<svg width="2000" height="3000" version="1.1" xmlns="http://www.w3.org/2000/svg">
<path d="M14.58 25.933c2.11.368 8.846-1.197 11.137-9.258 2.34-8.29 1.146-6.63-5.635.415-3.666 3.824-6.553 8.66-5.5 8.843zm5.914 5.252c7.33-2.627 7.24-12.205 6.05-9.536-1.192 2.62-1.972 4.74-4.537 6.21-2.017 1.15-3.437 1.29-5.912 1.24-2.064-.05-3.942-1.75-4.54.83-.64 2.85 6.236 2.21 8.94 1.24zM14.307 18.75c5.638-7.833 14.023-10.64 13.06-11.61-1.144-1.15-6.185.416-6.185.416-7.838 2.763-16.36 7.922-16.912 14.372-.182 1.886.367 5.435 2.75 6.908 1.65 1.013 4.49-6.22 7.287-10.087zm-5.5-6.91c3.116-2.304 9.12-4.193 7.836-4.146-4.353.138-13.197 3.73-13.61 9.26-.138 1.75 2.658-2.812 5.775-5.115zm-7.7 20.817c-.503-.734 1.514-1.15 1.88-1.98 1.834-3.5-1.42-2.072-2.795-10.086C-2.468 5.44 23.335 5.44 26.774 4.84c3.16-.555-.05-4.747 2.427-4.747.83 0 0 2.166.83 2.488.87.37 1.38-1.98 2.25-1.24 1.2 1.02-1.14 1.94-.5 2.58.46.46 1.56-.41 1.93.19.64.97-1.1 1.62-2.66 1.89-5.68.97 6.51 25.94-13.29 29.39-5.22.97-7.65-3.64-11.55-1.38-.96.56-1.65 2.68-2.24 1.8-.36-.55.6-1.42 0-1.79-.41-.23-1 .786-1.42.417-.32-.322.14-.83-.18-1.243-.272-.413-.914-.043-1.24-.51z" fill="black" stroke="black" transform="rotate(0) translate(100) scale(55, 20)"></path></svg>
